<svg width="20" height="20" viewBox="0 0 20 20" fill="none" xmlns="http://www.w3.org/2000/svg">
<path fill-rule="evenodd" clip-rule="evenodd" d="M6.66667 5.83333C6.66667 4.94928 7.01786 4.10143 7.64298 3.47631C8.2681 2.85119 9.11594 2.5 10 2.5C10.8841 2.5 11.7319 2.85119 12.357 3.47631C12.9821 4.10143 13.3333 4.94928 13.3333 5.83333C13.3333 6.71739 12.9821 7.56523 12.357 8.19036C11.7319 8.81548 10.8841 9.16667 10 9.16667C9.11594 9.16667 8.2681 8.81548 7.64298 8.19036C7.01786 7.56523 6.66667 6.71739 6.66667 5.83333ZM6.66667 10.8333C5.5616 10.8333 4.50179 11.2723 3.72039 12.0537C2.93899 12.8351 2.5 13.8949 2.5 15C2.5 15.663 2.76339 16.2989 3.23223 16.7678C3.70107 17.2366 4.33696 17.5 5 17.5H15C15.663 17.5 16.2989 17.2366 16.7678 16.7678C17.2366 16.2989 17.5 15.663 17.5 15C17.5 13.8949 17.061 12.8351 16.2796 12.0537C15.4982 11.2723 14.4384 10.8333 13.3333 10.8333H6.66667Z" fill="black"/>
</svg>
