<svg width="20" height="20" viewBox="0 0 20 20" fill="none" xmlns="http://www.w3.org/2000/svg">
<g clip-path="url(#clip0_2664_2)">
<path d="M10.4333 0.160044C10.3126 0.0567576 10.1589 0 10 0C9.8411 0 9.68742 0.0567576 9.56667 0.160044L0 8.36004V18C0 18.5305 0.210714 19.0392 0.585786 19.4143C0.960859 19.7893 1.46957 20 2 20H7.33333C7.51014 20 7.67971 19.9298 7.80474 19.8048C7.92976 19.6798 8 19.5102 8 19.3334V15.3334C8 14.8029 8.21071 14.2942 8.58579 13.9192C8.96086 13.5441 9.46957 13.3334 10 13.3334C10.5304 13.3334 11.0391 13.5441 11.4142 13.9192C11.7893 14.2942 12 14.8029 12 15.3334V19.3334C12 19.5102 12.0702 19.6798 12.1953 19.8048C12.3203 19.9298 12.4899 20 12.6667 20H18C18.5304 20 19.0391 19.7893 19.4142 19.4143C19.7893 19.0392 20 18.5305 20 18V8.36004L10.4333 0.160044Z" fill="black"/>
</g>
<defs>
<clipPath id="clip0_2664_2">
<rect width="20" height="20" fill="white"/>
</clipPath>
</defs>
</svg>
