<svg width="20" height="20" viewBox="0 0 20 20" fill="none" xmlns="http://www.w3.org/2000/svg">
<path d="M3.33301 14.9998C3.33301 14.1158 3.6842 13.2679 4.30932 12.6428C4.93444 12.0177 5.78229 11.6665 6.66634 11.6665H13.333C14.2171 11.6665 15.0649 12.0177 15.69 12.6428C16.3152 13.2679 16.6663 14.1158 16.6663 14.9998C16.6663 15.4419 16.4907 15.8658 16.1782 16.1783C15.8656 16.4909 15.4417 16.6665 14.9997 16.6665H4.99967C4.55765 16.6665 4.13372 16.4909 3.82116 16.1783C3.5086 15.8658 3.33301 15.4419 3.33301 14.9998Z" stroke="black" stroke-width="1.66667" stroke-linejoin="round"/>
<path d="M10 8.33301C11.3807 8.33301 12.5 7.21372 12.5 5.83301C12.5 4.4523 11.3807 3.33301 10 3.33301C8.61929 3.33301 7.5 4.4523 7.5 5.83301C7.5 7.21372 8.61929 8.33301 10 8.33301Z" stroke="black" stroke-width="1.66667"/>
</svg>
