<svg width="20" height="20" viewBox="0 0 20 20" fill="none" xmlns="http://www.w3.org/2000/svg">
<path d="M9.99996 18.3333C14.6025 18.3333 18.3333 14.6025 18.3333 9.99996C18.3333 5.39746 14.6025 1.66663 9.99996 1.66663C5.39746 1.66663 1.66663 5.39746 1.66663 9.99996C1.66663 14.6025 5.39746 18.3333 9.99996 18.3333ZM11.25 6.66663C11.5233 7.02996 11.7191 7.45496 11.8125 7.91663H13.3333V9.16663H11.8125C11.6684 9.87248 11.2848 10.5069 10.7268 10.9624C10.1687 11.418 9.47037 11.6668 8.74996 11.6666H8.59163L11.6916 14.7666L10.8083 15.65L6.66663 11.5083V10.4166H8.74996C9.1378 10.4167 9.51613 10.2966 9.83283 10.0727C10.1495 9.84885 10.389 9.53228 10.5183 9.16663H6.66663V7.91663H10.5183C10.389 7.55097 10.1495 7.2344 9.83283 7.01053C9.51613 6.78666 9.1378 6.66651 8.74996 6.66663H6.66663V5.41663H13.3333V6.66663H11.25Z" fill="black"/>
</svg>
