<svg width="20" height="20" viewBox="0 0 20 20" fill="none" xmlns="http://www.w3.org/2000/svg">
<path d="M16.4675 3.06677L6.29172 1.2699C5.96528 1.21245 5.6294 1.28701 5.35792 1.47718C5.08644 1.66734 4.90161 1.95754 4.84406 2.28396L2.51985 15.4871C2.49142 15.6488 2.49514 15.8146 2.53081 15.9749C2.56647 16.1352 2.63337 16.2869 2.72769 16.4214C2.82201 16.5558 2.94189 16.6703 3.0805 16.7584C3.2191 16.8465 3.3737 16.9064 3.53547 16.9347L13.7113 18.7316C13.8731 18.7602 14.0389 18.7565 14.1993 18.7209C14.3597 18.6853 14.5115 18.6184 14.646 18.5241C14.7806 18.4298 14.8952 18.3098 14.9833 18.1712C15.0714 18.0325 15.1314 17.8778 15.1597 17.716L17.4839 4.51287C17.5408 4.18632 17.4658 3.85054 17.2752 3.57935C17.0845 3.30816 16.794 3.12379 16.4675 3.06677ZM10.5863 10.2785C10.5607 10.4231 10.4851 10.5541 10.3727 10.6485C10.2603 10.7429 10.1182 10.7947 9.97141 10.7949C9.93475 10.7949 9.89816 10.7917 9.86203 10.7855L6.61985 10.2129C6.46576 10.175 6.33186 10.0799 6.2453 9.94689C6.15875 9.8139 6.12601 9.65297 6.15374 9.49674C6.18147 9.3405 6.26758 9.20066 6.39462 9.10558C6.52166 9.0105 6.6801 8.9673 6.83781 8.98474L10.0784 9.55427C10.1594 9.56843 10.2367 9.5984 10.306 9.64247C10.3754 9.68654 10.4353 9.74384 10.4825 9.8111C10.5297 9.87837 10.5631 9.95427 10.5809 10.0345C10.5987 10.1147 10.6005 10.1976 10.5863 10.2785ZM14.2581 8.38943C14.2326 8.53388 14.1572 8.66477 14.0449 8.75917C13.9326 8.85358 13.7907 8.9055 13.6441 8.90584C13.6071 8.90589 13.5702 8.90249 13.5339 8.89568L7.04953 7.75115C6.88626 7.72224 6.74115 7.62966 6.64614 7.49377C6.55113 7.35788 6.51399 7.18981 6.54289 7.02654C6.5718 6.86326 6.66438 6.71816 6.80027 6.62315C6.93616 6.52813 7.10423 6.49099 7.2675 6.5199L13.7519 7.66521C13.8329 7.67927 13.9103 7.70918 13.9797 7.75321C14.0491 7.79724 14.1092 7.85453 14.1564 7.9218C14.2037 7.98908 14.2372 8.06501 14.255 8.14525C14.2729 8.22549 14.2747 8.30847 14.2605 8.38943H14.2581ZM14.6917 5.92693C14.6662 6.07151 14.5906 6.2025 14.4782 6.29693C14.3658 6.39135 14.2237 6.44318 14.0769 6.44334C14.0402 6.44327 14.0036 6.44013 13.9675 6.43396L7.48313 5.28865C7.40044 5.27648 7.32103 5.24785 7.2496 5.20445C7.17817 5.16105 7.11617 5.10377 7.06727 5.03599C7.01837 4.9682 6.98356 4.8913 6.9649 4.80983C6.94625 4.72836 6.94412 4.64398 6.95864 4.56167C6.97317 4.47936 7.00406 4.40081 7.04948 4.33065C7.09491 4.26049 7.15394 4.20015 7.22309 4.15321C7.29224 4.10626 7.3701 4.07367 7.45207 4.05734C7.53404 4.04102 7.61846 4.0413 7.70031 4.05818L14.1847 5.20271C14.2658 5.21668 14.3433 5.24652 14.4128 5.29051C14.4823 5.3345 14.5424 5.39178 14.5897 5.45907C14.6371 5.52635 14.6706 5.60231 14.6885 5.6826C14.7064 5.76288 14.7083 5.84592 14.6941 5.92693H14.6917Z" fill="black"/>
</svg>
