<svg width="20" height="20" viewBox="0 0 20 20" fill="none" xmlns="http://www.w3.org/2000/svg">
<path d="M16.4675 3.06677L6.29172 1.2699C5.96528 1.21245 5.6294 1.28701 5.35792 1.47718C5.08644 1.66734 4.90161 1.95754 4.84406 2.28396L2.51985 15.4871C2.49142 15.6488 2.49514 15.8146 2.53081 15.9749C2.56647 16.1352 2.63337 16.2869 2.72769 16.4214C2.82201 16.5558 2.94189 16.6703 3.0805 16.7584C3.2191 16.8465 3.3737 16.9064 3.53547 16.9347L13.7113 18.7316C13.8731 18.7602 14.0389 18.7565 14.1993 18.7209C14.3597 18.6853 14.5115 18.6184 14.646 18.5241C14.7806 18.4298 14.8952 18.3098 14.9833 18.1712C15.0714 18.0325 15.1314 17.8778 15.1597 17.716L17.4839 4.51287C17.5408 4.18632 17.4658 3.85054 17.2752 3.57935C17.0845 3.30816 16.794 3.12379 16.4675 3.06677ZM13.9269 17.5004L3.75031 15.7035L6.07453 2.50037L16.2503 4.29724L13.9269 17.5004ZM6.98 4.56443C7.00895 4.40128 7.1015 4.25631 7.23731 4.16138C7.37311 4.06645 7.54106 4.02933 7.70422 4.05818L14.1886 5.20271C14.3427 5.22971 14.4811 5.31352 14.5764 5.43759C14.6717 5.56167 14.717 5.71698 14.7034 5.87283C14.6897 6.02869 14.6181 6.17377 14.5027 6.2794C14.3873 6.38502 14.2365 6.44352 14.08 6.44334C14.0433 6.44327 14.0068 6.44013 13.9706 6.43396L7.48625 5.28865C7.32311 5.2597 7.17813 5.16715 7.0832 5.03134C6.98827 4.89554 6.95115 4.72759 6.98 4.56443ZM6.54719 7.02693C6.56143 6.94608 6.59147 6.86882 6.63558 6.79958C6.67969 6.73034 6.737 6.67046 6.80426 6.62338C6.87151 6.57629 6.94738 6.54292 7.02754 6.52517C7.10769 6.50741 7.19056 6.50562 7.27141 6.5199L13.7558 7.66521C13.911 7.69117 14.0507 7.7747 14.147 7.89914C14.2433 8.02358 14.2891 8.17976 14.2753 8.3365C14.2615 8.49324 14.189 8.63901 14.0725 8.74469C13.9559 8.85037 13.8037 8.9082 13.6464 8.90662C13.6095 8.90667 13.5726 8.90327 13.5363 8.89646L7.05188 7.75193C6.88886 7.72262 6.74414 7.62981 6.64951 7.49387C6.55488 7.35793 6.51808 7.18998 6.54719 7.02693ZM6.1136 9.48865C6.14309 9.32593 6.23587 9.18154 6.37161 9.08709C6.50735 8.99264 6.67499 8.95584 6.83781 8.98474L10.0784 9.55427C10.2325 9.58126 10.3708 9.66501 10.4661 9.789C10.5614 9.91299 10.6068 10.0682 10.5932 10.224C10.5797 10.3798 10.5083 10.5249 10.393 10.6306C10.2777 10.7363 10.127 10.7949 9.97063 10.7949C9.93397 10.7949 9.89738 10.7917 9.86125 10.7855L6.61906 10.2129C6.45606 10.1837 6.31128 10.0911 6.21651 9.95532C6.12174 9.81954 6.08473 9.6517 6.1136 9.48865Z" fill="black"/>
</svg>
