<svg width="20" height="20" viewBox="0 0 20 20" fill="none" xmlns="http://www.w3.org/2000/svg">
<path d="M18.75 8.28125H17.8047L15.593 3.30547C15.507 3.11223 15.3669 2.94806 15.1895 2.83284C15.0122 2.71761 14.8052 2.65627 14.5938 2.65625H5.40625C5.19476 2.65627 4.98781 2.71761 4.81047 2.83284C4.63312 2.94806 4.49299 3.11223 4.40703 3.30547L2.19531 8.28125H1.25C1.12568 8.28125 1.00645 8.33064 0.918544 8.41854C0.830636 8.50645 0.78125 8.62568 0.78125 8.75C0.78125 8.87432 0.830636 8.99355 0.918544 9.08146C1.00645 9.16936 1.12568 9.21875 1.25 9.21875H2.03125V15.625C2.03125 15.9151 2.14648 16.1933 2.3516 16.3984C2.55672 16.6035 2.83492 16.7188 3.125 16.7188H5C5.29008 16.7188 5.56828 16.6035 5.7734 16.3984C5.97852 16.1933 6.09375 15.9151 6.09375 15.625V14.2188H13.9062V15.625C13.9062 15.9151 14.0215 16.1933 14.2266 16.3984C14.4317 16.6035 14.7099 16.7188 15 16.7188H16.875C17.1651 16.7188 17.4433 16.6035 17.6484 16.3984C17.8535 16.1933 17.9688 15.9151 17.9688 15.625V9.21875H18.75C18.8743 9.21875 18.9935 9.16936 19.0815 9.08146C19.1694 8.99355 19.2188 8.87432 19.2188 8.75C19.2188 8.62568 19.1694 8.50645 19.0815 8.41854C18.9935 8.33064 18.8743 8.28125 18.75 8.28125ZM5.26328 3.68672C5.27554 3.65904 5.29558 3.63551 5.32096 3.61901C5.34635 3.6025 5.37597 3.59373 5.40625 3.59375H14.5938C14.624 3.59373 14.6537 3.6025 14.679 3.61901C14.7044 3.63551 14.7245 3.65904 14.7367 3.68672L16.7789 8.28125H3.22109L5.26328 3.68672ZM5.15625 15.625C5.15625 15.6664 5.13979 15.7062 5.11049 15.7355C5.08118 15.7648 5.04144 15.7812 5 15.7812H3.125C3.08356 15.7812 3.04382 15.7648 3.01451 15.7355C2.98521 15.7062 2.96875 15.6664 2.96875 15.625V14.2188H5.15625V15.625ZM16.875 15.7812H15C14.9586 15.7812 14.9188 15.7648 14.8895 15.7355C14.8602 15.7062 14.8438 15.6664 14.8438 15.625V14.2188H17.0312V15.625C17.0312 15.6664 17.0148 15.7062 16.9855 15.7355C16.9562 15.7648 16.9164 15.7812 16.875 15.7812ZM17.0312 13.2812H2.96875V9.21875H17.0312V13.2812ZM4.53125 11.25C4.53125 11.1257 4.58064 11.0065 4.66854 10.9185C4.75645 10.8306 4.87568 10.7812 5 10.7812H6.25C6.37432 10.7812 6.49355 10.8306 6.58146 10.9185C6.66936 11.0065 6.71875 11.1257 6.71875 11.25C6.71875 11.3743 6.66936 11.4935 6.58146 11.5815C6.49355 11.6694 6.37432 11.7188 6.25 11.7188H5C4.87568 11.7188 4.75645 11.6694 4.66854 11.5815C4.58064 11.4935 4.53125 11.3743 4.53125 11.25ZM13.2812 11.25C13.2812 11.1257 13.3306 11.0065 13.4185 10.9185C13.5065 10.8306 13.6257 10.7812 13.75 10.7812H15C15.1243 10.7812 15.2435 10.8306 15.3315 10.9185C15.4194 11.0065 15.4688 11.1257 15.4688 11.25C15.4688 11.3743 15.4194 11.4935 15.3315 11.5815C15.2435 11.6694 15.1243 11.7188 15 11.7188H13.75C13.6257 11.7188 13.5065 11.6694 13.4185 11.5815C13.3306 11.4935 13.2812 11.3743 13.2812 11.25Z" fill="black"/>
</svg>
