<svg width="20" height="20" viewBox="0 0 20 20" fill="none" xmlns="http://www.w3.org/2000/svg">
<g clip-path="url(#clip0_2722_2)">
<path fill-rule="evenodd" clip-rule="evenodd" d="M2.24714 2.24714C2.28037 2.214 2.31981 2.18773 2.36319 2.16983C2.40658 2.15194 2.45307 2.14277 2.5 2.14286H4.64286C4.92702 2.14286 5.19954 2.02997 5.40047 1.82904C5.6014 1.62811 5.71429 1.35559 5.71429 1.07143C5.71429 0.787268 5.6014 0.514746 5.40047 0.313814C5.19954 0.112882 4.92702 0 4.64286 0L2.5 0C1.83696 0 1.20107 0.263392 0.732233 0.732233C0.263392 1.20107 0 1.83696 0 2.5L0 4.64286C0 4.92702 0.112882 5.19954 0.313814 5.40047C0.514746 5.6014 0.787268 5.71429 1.07143 5.71429C1.35559 5.71429 1.62811 5.6014 1.82904 5.40047C2.02997 5.19954 2.14286 4.92702 2.14286 4.64286V2.5C2.14277 2.45307 2.15194 2.40658 2.16983 2.36319C2.18773 2.31981 2.214 2.28037 2.24714 2.24714ZM20 15.3571C20 15.073 19.8871 14.8005 19.6862 14.5995C19.4853 14.3986 19.2127 14.2857 18.9286 14.2857C18.6444 14.2857 18.3719 14.3986 18.171 14.5995C17.97 14.8005 17.8571 15.073 17.8571 15.3571V17.5C17.8571 17.5947 17.8195 17.6856 17.7525 17.7525C17.6856 17.8195 17.5947 17.8571 17.5 17.8571H15.3571C15.073 17.8571 14.8005 17.97 14.5995 18.171C14.3986 18.3719 14.2857 18.6444 14.2857 18.9286C14.2857 19.2127 14.3986 19.4853 14.5995 19.6862C14.8005 19.8871 15.073 20 15.3571 20H17.5C18.163 20 18.7989 19.7366 19.2678 19.2678C19.7366 18.7989 20 18.163 20 17.5V15.3571ZM1.07143 14.2857C1.35559 14.2857 1.62811 14.3986 1.82904 14.5995C2.02997 14.8005 2.14286 15.073 2.14286 15.3571V17.5C2.14286 17.5947 2.18048 17.6856 2.24746 17.7525C2.31444 17.8195 2.40528 17.8571 2.5 17.8571H4.64286C4.92702 17.8571 5.19954 17.97 5.40047 18.171C5.6014 18.3719 5.71429 18.6444 5.71429 18.9286C5.71429 19.2127 5.6014 19.4853 5.40047 19.6862C5.19954 19.8871 4.92702 20 4.64286 20H2.5C1.83696 20 1.20107 19.7366 0.732233 19.2678C0.263392 18.7989 0 18.163 0 17.5L0 15.3571C0 15.073 0.112882 14.8005 0.313814 14.5995C0.514746 14.3986 0.787268 14.2857 1.07143 14.2857ZM15.3571 0C15.073 0 14.8005 0.112882 14.5995 0.313814C14.3986 0.514746 14.2857 0.787268 14.2857 1.07143C14.2857 1.35559 14.3986 1.62811 14.5995 1.82904C14.8005 2.02997 15.073 2.14286 15.3571 2.14286H17.5C17.5947 2.14286 17.6856 2.18048 17.7525 2.24746C17.8195 2.31444 17.8571 2.40528 17.8571 2.5V4.64286C17.8571 4.92702 17.97 5.19954 18.171 5.40047C18.3719 5.6014 18.6444 5.71429 18.9286 5.71429C19.2127 5.71429 19.4853 5.6014 19.6862 5.40047C19.8871 5.19954 20 4.92702 20 4.64286V2.5C20 1.83696 19.7366 1.20107 19.2678 0.732233C18.7989 0.263392 18.163 0 17.5 0H15.3571ZM10 11.1086C8.71122 11.1079 7.45309 11.5016 6.39459 12.2368C5.33608 12.972 4.5279 14.0135 4.07857 15.2214C3.91857 15.6486 4.26 16.0714 4.71571 16.0714H15.2814C15.7386 16.0714 16.0786 15.6486 15.92 15.2214C15.4707 14.0135 14.6625 12.972 13.604 12.2368C12.5455 11.5016 11.2888 11.1079 10 11.1086ZM13.1543 6.37286C13.1543 7.21037 12.8216 8.01359 12.2294 8.6058C11.6372 9.19801 10.8339 9.53071 9.99643 9.53071C9.15891 9.53071 8.3557 9.19801 7.76349 8.6058C7.17127 8.01359 6.83857 7.21037 6.83857 6.37286C6.83857 5.53534 7.17127 4.73213 7.76349 4.13991C8.3557 3.5477 9.15891 3.215 9.99643 3.215C10.8339 3.215 11.6372 3.5477 12.2294 4.13991C12.8216 4.73213 13.1543 5.53534 13.1543 6.37286Z" fill="black"/>
</g>
<defs>
<clipPath id="clip0_2722_2">
<rect width="20" height="20" fill="white"/>
</clipPath>
</defs>
</svg>
