<svg width="20" height="20" viewBox="0 0 20 20" fill="none" xmlns="http://www.w3.org/2000/svg">
<g clip-path="url(#clip0_2722_2)">
<path d="M19.2858 15.0006V17.8577C19.2858 18.2366 19.1353 18.5999 18.8674 18.8679C18.5995 19.1358 18.2361 19.2863 17.8572 19.2863H15.0001M15.0001 0.714844H17.8572C18.2361 0.714844 18.5995 0.865354 18.8674 1.13326C19.1353 1.40117 19.2858 1.76453 19.2858 2.14342V5.00056M0.714355 5.00056V2.14342C0.714355 1.76453 0.864865 1.40117 1.13277 1.13326C1.40068 0.865354 1.76405 0.714844 2.14293 0.714844H5.00007M5.00007 19.2863H2.14293C1.76405 19.2863 1.40068 19.1358 1.13277 18.8679C0.864865 18.5999 0.714355 18.2366 0.714355 17.8577V15.0006M10.0001 9.28627C10.7578 9.28627 11.4846 8.98525 12.0204 8.44943C12.5562 7.91362 12.8572 7.18689 12.8572 6.42913C12.8572 5.67137 12.5562 4.94464 12.0204 4.40882C11.4846 3.87301 10.7578 3.57199 10.0001 3.57199C9.24231 3.57199 8.51558 3.87301 7.97976 4.40882C7.44395 4.94464 7.14293 5.67137 7.14293 6.42913C7.14293 7.18689 7.44395 7.91362 7.97976 8.44943C8.51558 8.98525 9.24231 9.28627 10.0001 9.28627ZM15.4329 15.7148C15.0637 14.5641 14.3386 13.5604 13.3622 12.8483C12.3858 12.1362 11.2086 11.7525 10.0001 11.7525C8.79158 11.7525 7.6143 12.1362 6.63791 12.8483C5.66153 13.5604 4.93646 14.5641 4.56721 15.7148H15.4329Z" stroke="black" stroke-width="1.42857" stroke-linecap="round" stroke-linejoin="round"/>
</g>
<defs>
<clipPath id="clip0_2722_2">
<rect width="20" height="20" fill="white"/>
</clipPath>
</defs>
</svg>
