<svg width="20" height="20" viewBox="0 0 20 20" fill="none" xmlns="http://www.w3.org/2000/svg">
<path d="M10 1.875C8.39303 1.875 6.82214 2.35152 5.486 3.24431C4.14985 4.1371 3.10844 5.40605 2.49348 6.8907C1.87852 8.37535 1.71762 10.009 2.03112 11.5851C2.34463 13.1612 3.11846 14.6089 4.25476 15.7452C5.39106 16.8815 6.8388 17.6554 8.41489 17.9689C9.99099 18.2824 11.6247 18.1215 13.1093 17.5065C14.594 16.8916 15.8629 15.8502 16.7557 14.514C17.6485 13.1779 18.125 11.607 18.125 10C18.1227 7.84581 17.266 5.78051 15.7427 4.25727C14.2195 2.73403 12.1542 1.87727 10 1.875ZM3.87735 13.125H7.06641L8.39453 16.6859C7.42982 16.4521 6.52689 16.013 5.74734 15.3984C4.96779 14.7839 4.32995 14.0085 3.87735 13.125ZM10 12.1875C9.75278 12.1875 9.5111 12.1142 9.30554 11.9768C9.09998 11.8395 8.93976 11.6443 8.84515 11.4159C8.75054 11.1874 8.72579 10.9361 8.77402 10.6936C8.82225 10.4512 8.9413 10.2284 9.11612 10.0536C9.29094 9.8788 9.51366 9.75975 9.75614 9.71152C9.99862 9.66329 10.25 9.68804 10.4784 9.78265C10.7068 9.87726 10.902 10.0375 11.0393 10.243C11.1767 10.4486 11.25 10.6903 11.25 10.9375C11.25 11.269 11.1183 11.587 10.8839 11.8214C10.6495 12.0558 10.3315 12.1875 10 12.1875ZM11.5984 16.6867L12.9336 13.125H16.1227C15.6694 14.0094 15.0306 14.7855 14.2497 15.4002C13.4689 16.0149 12.5645 16.4538 11.5984 16.6867ZM10 7.5C7.48187 7.50305 5.04619 8.39789 3.125 10.0258V10C3.125 8.17664 3.84933 6.42795 5.13864 5.13864C6.42796 3.84933 8.17664 3.125 10 3.125C11.8234 3.125 13.5721 3.84933 14.8614 5.13864C16.1507 6.42795 16.875 8.17664 16.875 10V10.0258C14.9538 8.39789 12.5181 7.50305 10 7.5Z" fill="black"/>
</svg>
