<svg width="20" height="20" viewBox="0 0 20 20" fill="none" xmlns="http://www.w3.org/2000/svg">
<path d="M17.5833 10.4173L18.75 11.5923L13.3083 17.084L10.4167 14.1673L11.5833 12.9923L13.3083 14.7257L17.5833 10.4173ZM8.33333 14.1673L10.8333 16.6673H2.5V15.0007C2.5 13.159 5.48333 11.6673 9.16667 11.6673L10.7417 11.759L8.33333 14.1673ZM9.16667 3.33398C10.0507 3.33398 10.8986 3.68517 11.5237 4.31029C12.1488 4.93542 12.5 5.78326 12.5 6.66732C12.5 7.55137 12.1488 8.39922 11.5237 9.02434C10.8986 9.64946 10.0507 10.0007 9.16667 10.0007C8.28261 10.0007 7.43477 9.64946 6.80964 9.02434C6.18452 8.39922 5.83333 7.55137 5.83333 6.66732C5.83333 5.78326 6.18452 4.93542 6.80964 4.31029C7.43477 3.68517 8.28261 3.33398 9.16667 3.33398Z" fill="black"/>
</svg>
