<svg width="20" height="20" viewBox="0 0 20 20" fill="none" xmlns="http://www.w3.org/2000/svg">
<path d="M17.5833 10.4173L18.75 11.5923L13.3083 17.084L10.4167 14.1673L11.5833 12.9923L13.3083 14.7257L17.5833 10.4173ZM9.16667 3.33398C10.0507 3.33398 10.8986 3.68517 11.5237 4.31029C12.1488 4.93542 12.5 5.78326 12.5 6.66732C12.5 7.55137 12.1488 8.39922 11.5237 9.02434C10.8986 9.64946 10.0507 10.0007 9.16667 10.0007C8.28261 10.0007 7.43477 9.64946 6.80964 9.02434C6.18452 8.39922 5.83333 7.55137 5.83333 6.66732C5.83333 5.78326 6.18452 4.93542 6.80964 4.31029C7.43477 3.68517 8.28261 3.33398 9.16667 3.33398ZM9.16667 5.00065C8.72464 5.00065 8.30072 5.17625 7.98816 5.48881C7.67559 5.80137 7.5 6.22529 7.5 6.66732C7.5 7.10935 7.67559 7.53327 7.98816 7.84583C8.30072 8.15839 8.72464 8.33398 9.16667 8.33398C9.60869 8.33398 10.0326 8.15839 10.3452 7.84583C10.6577 7.53327 10.8333 7.10935 10.8333 6.66732C10.8333 6.22529 10.6577 5.80137 10.3452 5.48881C10.0326 5.17625 9.60869 5.00065 9.16667 5.00065ZM9.16667 10.834C9.73333 10.834 10.4167 10.909 11.175 11.0507L9.78333 12.4423L9.16667 12.4173C6.69167 12.4173 4.08333 13.634 4.08333 14.1673V15.084H9.25L10.8333 16.6673H2.5V14.1673C2.5 11.9507 6.94167 10.834 9.16667 10.834Z" fill="black"/>
</svg>
